<svg id="Layer_1" data-name="Layer 1" xmlns="http://www.w3.org/2000/svg" viewBox="0 0 596.28 842.89"><defs><style>.cls-1{fill:#d31e47}</style></defs><path class="cls-1" d="M0.5,0.5V842.39H595.78V0.5H0.5ZM284.36,19.25a55,55,0,1,1-55,55A55,55,0,0,1,284.36,19.25ZM14.5,157a58.1,58.1,0,1,1,58.1,58.1A58.1,58.1,0,0,1,14.5,157Zm99.09,146.6a58.91,58.91,0,1,1-58.91,58.91A58.91,58.91,0,0,1,113.59,303.62Zm10,430.83a58.91,58.91,0,1,1,58.91-58.91A58.91,58.91,0,0,1,123.59,734.45Zm143-149a58.91,58.91,0,1,1,58.91-58.91A58.91,58.91,0,0,1,266.59,585.45Zm72.8-239.07a58.91,58.91,0,1,1,58.91-58.91A58.91,58.91,0,0,1,339.38,346.37Zm136.2,381.57A58.91,58.91,0,1,1,534.5,669,58.91,58.91,0,0,1,475.59,727.95Zm5.24-232.33a58.1,58.1,0,1,1,58.1-58.1A58.1,58.1,0,0,1,480.83,495.61Zm21-305.81a55,55,0,1,1,55-55A55,55,0,0,1,501.86,189.8Z"/></svg>